<?xml version="1.0" encoding="UTF-8" standalone="no"?><!DOCTYPE svg PUBLIC "-//W3C//DTD SVG 1.1//EN" "http://www.w3.org/Graphics/SVG/1.1/DTD/svg11.dtd"><svg width="100%" height="100%" viewBox="0 0 528 528" version="1.1" xmlns="http://www.w3.org/2000/svg" xmlns:xlink="http://www.w3.org/1999/xlink" xml:space="preserve" xmlns:serif="http://www.serif.com/" style="fill-rule:evenodd;clip-rule:evenodd;stroke-linejoin:round;stroke-miterlimit:1.41421;"><rect id="文字盤" x="0" y="0" width="528" height="528" style="fill:none;"/><g id="文字盤1" serif:id="文字盤"><circle id="文字盤2" serif:id="文字盤" cx="264" cy="264" r="192" style="fill:#fff;"/><g id="文字盤0-9"><path d="M271.949,80.257c0.03,-0.152 -0.045,-0.305 -0.184,-0.374c-1.202,-0.602 -6.65,-3.325 -7.618,-3.809c-0.092,-0.047 -0.202,-0.047 -0.294,0c-0.973,0.486 -6.473,3.236 -7.637,3.818c-0.127,0.064 -0.197,0.205 -0.169,0.345c0.587,2.933 6.438,32.19 7.71,38.548c0.023,0.116 0.125,0.199 0.243,0.199c0.118,0 0.22,-0.083 0.243,-0.199c1.269,-6.343 7.097,-35.483 7.706,-38.528Z" style="fill:#22406d;"/><g><path id="秒" d="M338.598,96.025c0.072,-0.027 0.152,-0.025 0.222,0.006c0.071,0.032 0.126,0.09 0.154,0.162c0.367,0.957 1.591,4.148 1.867,4.866c0.034,0.089 0.021,0.191 -0.034,0.269c-0.956,1.349 -9.32,13.154 -11.289,15.932c-0.04,0.056 -0.113,0.076 -0.175,0.048c-0.063,-0.027 -0.097,-0.095 -0.082,-0.162c0.749,-3.321 3.927,-17.425 4.293,-19.047c0.021,-0.095 0.089,-0.173 0.18,-0.208c0.72,-0.276 3.908,-1.499 4.864,-1.866Z" style="fill:#e8eaf0;"/><path id="秒1" serif:id="秒" d="M355.73,104.733c0.075,-0.02 0.154,-0.009 0.221,0.029c0.067,0.039 0.116,0.103 0.136,0.177c0.265,0.99 1.149,4.292 1.348,5.034c0.025,0.093 0.002,0.192 -0.062,0.265c-1.091,1.242 -10.642,12.108 -12.891,14.666c-0.045,0.051 -0.12,0.064 -0.179,0.029c-0.059,-0.034 -0.086,-0.105 -0.064,-0.169c1.091,-3.225 5.725,-16.92 6.258,-18.495c0.031,-0.092 0.107,-0.163 0.201,-0.188c0.745,-0.2 4.043,-1.083 5.032,-1.348Z" style="fill:#e8eaf0;"/><path id="秒2" serif:id="秒" d="M371.83,115.161c0.077,-0.012 0.155,0.007 0.217,0.052c0.063,0.046 0.105,0.114 0.117,0.19c0.16,1.013 0.696,4.389 0.816,5.148c0.015,0.095 -0.018,0.191 -0.089,0.256c-1.215,1.122 -11.847,10.933 -14.349,13.243c-0.051,0.046 -0.126,0.051 -0.182,0.011c-0.055,-0.04 -0.074,-0.114 -0.046,-0.176c1.422,-3.093 7.458,-16.231 8.152,-17.741c0.041,-0.089 0.123,-0.151 0.219,-0.166c0.762,-0.121 4.134,-0.656 5.145,-0.817Z" style="fill:#e8eaf0;"/><path id="秒3" serif:id="秒" d="M386.795,127.246c0.077,-0.004 0.152,0.022 0.21,0.074c0.057,0.052 0.092,0.124 0.096,0.201c0.054,1.024 0.233,4.437 0.274,5.204c0.005,0.097 -0.038,0.189 -0.116,0.246c-1.325,0.989 -12.924,9.636 -15.654,11.671c-0.055,0.041 -0.131,0.037 -0.182,-0.008c-0.05,-0.046 -0.062,-0.121 -0.027,-0.18c1.737,-2.928 9.113,-15.362 9.961,-16.792c0.05,-0.084 0.138,-0.137 0.235,-0.142c0.771,-0.041 4.18,-0.221 5.203,-0.274Z" style="fill:#e8eaf0;"/><path id="秒4" serif:id="秒" d="M400.499,140.921c0.077,0.004 0.149,0.039 0.201,0.096c0.051,0.058 0.078,0.133 0.074,0.21c-0.054,1.024 -0.234,4.437 -0.275,5.205c-0.005,0.096 -0.058,0.183 -0.14,0.232c-1.423,0.843 -13.867,8.222 -16.796,9.959c-0.059,0.035 -0.134,0.024 -0.179,-0.027c-0.046,-0.051 -0.05,-0.127 -0.009,-0.182c2.035,-2.728 10.679,-14.318 11.672,-15.651c0.059,-0.078 0.152,-0.122 0.249,-0.117c0.771,0.041 4.18,0.221 5.203,0.275Z" style="fill:#e8eaf0;"/><path id="秒5" serif:id="秒" d="M412.539,155.757c0.076,0.012 0.145,0.054 0.19,0.117c0.045,0.062 0.064,0.14 0.052,0.216c-0.16,1.013 -0.694,4.389 -0.814,5.148c-0.015,0.095 -0.076,0.176 -0.164,0.217c-1.502,0.691 -14.645,6.738 -17.738,8.161c-0.062,0.029 -0.136,0.01 -0.176,-0.046c-0.04,-0.055 -0.036,-0.131 0.011,-0.181c2.307,-2.503 12.107,-13.133 13.233,-14.355c0.066,-0.071 0.164,-0.105 0.26,-0.09c0.762,0.12 4.134,0.653 5.146,0.813Z" style="fill:#e8eaf0;"/><path id="秒6" serif:id="秒" d="M283.007,81.191c0.06,-0.048 0.137,-0.071 0.214,-0.063c0.076,0.008 0.147,0.046 0.196,0.106c0.644,0.797 2.796,3.453 3.279,4.05c0.061,0.075 0.08,0.175 0.051,0.267c-0.492,1.579 -4.796,15.391 -5.809,18.642c-0.021,0.065 -0.084,0.107 -0.152,0.1c-0.068,-0.007 -0.121,-0.061 -0.128,-0.129c-0.315,-3.39 -1.653,-17.786 -1.807,-19.441c-0.009,-0.097 0.032,-0.192 0.107,-0.253c0.6,-0.486 3.253,-2.634 4.049,-3.279Z" style="fill:#e8eaf0;"/><path id="秒7" serif:id="秒" d="M302.133,84.205c0.065,-0.042 0.144,-0.056 0.22,-0.04c0.075,0.016 0.141,0.061 0.183,0.126c0.558,0.86 2.418,3.728 2.836,4.373c0.052,0.081 0.061,0.182 0.022,0.271c-0.655,1.518 -6.389,14.8 -7.738,17.927c-0.027,0.063 -0.095,0.097 -0.162,0.083c-0.066,-0.014 -0.114,-0.073 -0.113,-0.142c0.043,-3.404 0.227,-17.86 0.248,-19.523c0.002,-0.097 0.052,-0.187 0.133,-0.24c0.648,-0.42 3.512,-2.278 4.371,-2.835Z" style="fill:#e8eaf0;"/><path id="秒8" serif:id="秒" d="M320.716,89.175c0.069,-0.035 0.149,-0.041 0.222,-0.017c0.073,0.024 0.134,0.076 0.169,0.145c0.465,0.913 2.015,3.96 2.363,4.645c0.044,0.086 0.042,0.188 -0.005,0.272c-0.811,1.441 -7.901,14.052 -9.57,17.02c-0.034,0.059 -0.105,0.087 -0.17,0.066c-0.064,-0.021 -0.105,-0.085 -0.097,-0.153c0.398,-3.381 2.092,-17.739 2.287,-19.39c0.011,-0.097 0.071,-0.181 0.157,-0.226c0.688,-0.349 3.731,-1.897 4.644,-2.362Z" style="fill:#e8eaf0;"/></g></g><g id="文字盤10-19"><path d="M427.097,179.007c0.147,-0.049 0.243,-0.191 0.233,-0.346c-0.08,-1.342 -0.445,-7.421 -0.51,-8.502c-0.006,-0.103 -0.061,-0.198 -0.148,-0.255c-0.907,-0.599 -6.039,-3.987 -7.125,-4.704c-0.119,-0.078 -0.276,-0.068 -0.383,0.027c-2.246,1.974 -24.658,21.671 -29.528,25.951c-0.089,0.078 -0.11,0.208 -0.051,0.31c0.059,0.103 0.182,0.149 0.294,0.111c6.128,-2.073 34.277,-11.597 37.218,-12.592Z" style="fill:#22406d;"/><g><path id="秒9" serif:id="秒" d="M446.769,244.61c0.06,0.049 0.098,0.12 0.106,0.196c0.008,0.077 -0.015,0.154 -0.063,0.214c-0.646,0.796 -2.797,3.453 -3.281,4.05c-0.06,0.075 -0.154,0.114 -0.25,0.105c-1.647,-0.153 -16.052,-1.494 -19.442,-1.81c-0.068,-0.006 -0.122,-0.059 -0.129,-0.127c-0.008,-0.068 0.034,-0.132 0.099,-0.152c3.251,-1.012 17.054,-5.312 18.641,-5.806c0.093,-0.029 0.195,-0.01 0.27,0.051c0.6,0.486 3.253,2.635 4.049,3.279Z" style="fill:#e8eaf0;"/><path id="秒10" serif:id="秒" d="M447.794,263.801c0.055,0.055 0.085,0.129 0.085,0.206c0,0.078 -0.03,0.152 -0.085,0.206c-0.725,0.725 -3.142,3.142 -3.685,3.685c-0.068,0.068 -0.166,0.098 -0.26,0.079c-1.622,-0.324 -15.808,-3.162 -19.147,-3.83c-0.067,-0.014 -0.115,-0.072 -0.115,-0.141c0,-0.068 0.048,-0.127 0.115,-0.14c3.338,-0.667 17.515,-3.502 19.145,-3.828c0.096,-0.019 0.195,0.011 0.263,0.079c0.546,0.546 2.96,2.96 3.684,3.684Z" style="fill:#e8eaf0;"/><path id="秒11" serif:id="秒" d="M446.814,282.959c0.048,0.06 0.071,0.137 0.063,0.214c-0.008,0.076 -0.046,0.147 -0.106,0.196c-0.796,0.645 -3.453,2.797 -4.049,3.28c-0.075,0.061 -0.175,0.08 -0.267,0.051c-1.579,-0.491 -15.392,-4.792 -18.644,-5.804c-0.065,-0.021 -0.107,-0.084 -0.1,-0.152c0.008,-0.068 0.062,-0.121 0.13,-0.128c3.389,-0.316 17.785,-1.657 19.44,-1.812c0.097,-0.009 0.192,0.031 0.253,0.107c0.486,0.6 2.635,3.252 3.28,4.048Z" style="fill:#e8eaf0;"/><path id="秒12" serif:id="秒" d="M443.831,301.961c0.042,0.064 0.057,0.143 0.041,0.219c-0.016,0.075 -0.061,0.141 -0.126,0.183c-0.86,0.559 -3.726,2.422 -4.37,2.84c-0.081,0.053 -0.183,0.061 -0.271,0.023c-1.519,-0.654 -14.807,-6.375 -17.935,-7.721c-0.062,-0.027 -0.097,-0.095 -0.083,-0.162c0.014,-0.066 0.073,-0.114 0.142,-0.113c3.404,0.04 17.861,0.21 19.523,0.23c0.097,0.001 0.188,0.05 0.241,0.132c0.42,0.647 2.28,3.51 2.838,4.369Z" style="fill:#e8eaf0;"/><path id="秒13" serif:id="秒" d="M438.841,320.666c0.035,0.069 0.041,0.149 0.017,0.223c-0.024,0.073 -0.076,0.134 -0.145,0.169c-0.913,0.465 -3.96,2.016 -4.644,2.364c-0.086,0.044 -0.188,0.042 -0.272,-0.005c-1.442,-0.81 -14.054,-7.897 -17.023,-9.566c-0.059,-0.033 -0.087,-0.104 -0.066,-0.169c0.021,-0.064 0.085,-0.105 0.153,-0.097c3.381,0.397 17.74,2.087 19.391,2.282c0.096,0.011 0.181,0.07 0.225,0.157c0.35,0.688 1.899,3.73 2.364,4.642Z" style="fill:#e8eaf0;"/><path id="秒14" serif:id="秒" d="M432.013,338.512c0.027,0.072 0.025,0.152 -0.006,0.223c-0.031,0.07 -0.09,0.126 -0.162,0.153c-0.956,0.368 -4.147,1.594 -4.864,1.869c-0.09,0.035 -0.191,0.022 -0.27,-0.033c-1.35,-0.956 -13.158,-9.314 -15.938,-11.281c-0.056,-0.04 -0.076,-0.113 -0.048,-0.175c0.028,-0.062 0.096,-0.097 0.162,-0.082c3.322,0.747 17.427,3.919 19.049,4.283c0.095,0.022 0.173,0.089 0.208,0.18c0.277,0.72 1.501,3.907 1.869,4.863Z" style="fill:#e8eaf0;"/><path id="秒15" serif:id="秒" d="M431.818,189.051c0.072,0.028 0.13,0.083 0.162,0.153c0.031,0.071 0.033,0.151 0.006,0.223c-0.368,0.957 -1.593,4.148 -1.868,4.866c-0.034,0.089 -0.111,0.156 -0.205,0.177c-1.614,0.364 -15.727,3.542 -19.05,4.29c-0.066,0.015 -0.134,-0.019 -0.162,-0.081c-0.027,-0.062 -0.007,-0.136 0.048,-0.175c2.778,-1.968 14.576,-10.325 15.933,-11.286c0.079,-0.056 0.182,-0.069 0.272,-0.034c0.721,0.277 3.908,1.5 4.864,1.867Z" style="fill:#e8eaf0;"/><path id="秒16" serif:id="秒" d="M438.772,207.122c0.069,0.035 0.121,0.096 0.144,0.169c0.024,0.074 0.018,0.154 -0.017,0.223c-0.466,0.912 -2.02,3.957 -2.369,4.641c-0.044,0.086 -0.128,0.144 -0.223,0.156c-1.643,0.191 -16.013,1.867 -19.395,2.262c-0.068,0.008 -0.132,-0.033 -0.153,-0.098c-0.021,-0.065 0.007,-0.136 0.066,-0.169c2.97,-1.665 15.581,-8.734 17.031,-9.547c0.085,-0.048 0.189,-0.05 0.275,-0.005c0.688,0.35 3.729,1.902 4.641,2.368Z" style="fill:#e8eaf0;"/><path id="秒17" serif:id="秒" d="M443.759,225.699c0.065,0.043 0.11,0.109 0.126,0.184c0.016,0.076 0.002,0.155 -0.04,0.219c-0.559,0.86 -2.423,3.725 -2.842,4.369c-0.052,0.081 -0.141,0.13 -0.238,0.131c-1.653,0.019 -16.119,0.184 -19.525,0.223c-0.068,0.001 -0.127,-0.047 -0.141,-0.113c-0.014,-0.067 0.02,-0.135 0.083,-0.162c3.127,-1.345 16.409,-7.057 17.936,-7.714c0.089,-0.039 0.192,-0.03 0.274,0.023c0.647,0.421 3.509,2.282 4.367,2.84Z" style="fill:#e8eaf0;"/></g></g><g id="文字盤20-29"><path d="M419.13,362.788c0.117,0.103 0.287,0.114 0.416,0.029c1.122,-0.74 6.206,-4.095 7.109,-4.691c0.087,-0.057 0.141,-0.152 0.147,-0.255c0.066,-1.086 0.436,-7.224 0.514,-8.523c0.008,-0.142 -0.08,-0.273 -0.215,-0.319c-2.833,-0.958 -31.094,-10.526 -37.235,-12.605c-0.112,-0.038 -0.235,0.009 -0.294,0.111c-0.059,0.102 -0.038,0.232 0.051,0.31c4.858,4.271 27.175,23.893 29.507,25.943Z" style="fill:#22406d;"/><g><path id="秒18" serif:id="秒" d="M372.139,412.614c-0.012,0.076 -0.054,0.145 -0.116,0.19c-0.063,0.046 -0.141,0.064 -0.217,0.052c-1.012,-0.161 -4.388,-0.697 -5.147,-0.817c-0.095,-0.015 -0.176,-0.077 -0.216,-0.164c-0.691,-1.503 -6.728,-14.65 -8.15,-17.745c-0.028,-0.062 -0.009,-0.135 0.046,-0.175c0.056,-0.04 0.131,-0.036 0.181,0.01c2.502,2.309 13.125,12.117 14.346,13.244c0.072,0.066 0.106,0.164 0.09,0.26c-0.121,0.762 -0.656,4.134 -0.817,5.145Z" style="fill:#e8eaf0;"/><path id="秒19" serif:id="秒" d="M356.03,423.094c-0.02,0.074 -0.069,0.138 -0.136,0.177c-0.067,0.038 -0.146,0.049 -0.221,0.029c-0.99,-0.266 -4.292,-1.152 -5.033,-1.351c-0.093,-0.025 -0.168,-0.094 -0.199,-0.186c-0.529,-1.566 -5.161,-15.272 -6.252,-18.498c-0.021,-0.065 0.005,-0.136 0.065,-0.17c0.059,-0.034 0.134,-0.022 0.179,0.03c2.246,2.557 11.787,13.42 12.884,14.669c0.064,0.073 0.088,0.174 0.063,0.268c-0.2,0.745 -1.085,4.043 -1.35,5.032Z" style="fill:#e8eaf0;"/><path id="秒20" serif:id="秒" d="M338.947,431.819c-0.028,0.072 -0.083,0.131 -0.154,0.162c-0.07,0.031 -0.151,0.033 -0.223,0.006c-0.956,-0.367 -4.148,-1.592 -4.865,-1.868c-0.09,-0.034 -0.157,-0.111 -0.178,-0.205c-0.363,-1.614 -3.541,-15.727 -4.29,-19.05c-0.015,-0.066 0.02,-0.134 0.082,-0.162c0.062,-0.028 0.135,-0.007 0.175,0.048c1.968,2.778 10.324,14.576 11.285,15.933c0.057,0.079 0.069,0.182 0.034,0.273c-0.276,0.72 -1.499,3.907 -1.866,4.863Z" style="fill:#e8eaf0;"/><path id="秒21" serif:id="秒" d="M320.998,438.733c-0.035,0.069 -0.096,0.121 -0.17,0.145c-0.073,0.023 -0.153,0.017 -0.222,-0.018c-0.913,-0.465 -3.959,-2.017 -4.644,-2.366c-0.085,-0.043 -0.144,-0.127 -0.155,-0.223c-0.193,-1.642 -1.878,-16.011 -2.275,-19.393c-0.008,-0.068 0.033,-0.132 0.098,-0.153c0.065,-0.021 0.135,0.007 0.169,0.066c1.666,2.969 8.744,15.575 9.558,17.025c0.048,0.085 0.05,0.188 0.006,0.275c-0.351,0.688 -1.9,3.729 -2.365,4.642Z" style="fill:#e8eaf0;"/><path id="秒22" serif:id="秒" d="M302.301,443.759c-0.042,0.065 -0.108,0.11 -0.183,0.126c-0.076,0.016 -0.155,0.001 -0.22,-0.041c-0.859,-0.558 -3.725,-2.422 -4.369,-2.841c-0.08,-0.052 -0.129,-0.142 -0.13,-0.238c-0.019,-1.653 -0.185,-16.12 -0.223,-19.525c-0.001,-0.068 0.046,-0.127 0.113,-0.141c0.067,-0.015 0.134,0.02 0.161,0.083c1.345,3.127 7.058,16.409 7.715,17.936c0.038,0.089 0.03,0.192 -0.024,0.274c-0.42,0.647 -2.281,3.509 -2.84,4.367Z" style="fill:#e8eaf0;"/><path id="秒23" serif:id="秒" d="M283.432,446.764c-0.049,0.06 -0.119,0.098 -0.196,0.106c-0.077,0.008 -0.154,-0.014 -0.214,-0.063c-0.796,-0.645 -3.453,-2.796 -4.05,-3.279c-0.075,-0.061 -0.114,-0.155 -0.105,-0.251c0.152,-1.646 1.49,-16.051 1.805,-19.442c0.006,-0.068 0.06,-0.122 0.127,-0.129c0.068,-0.008 0.132,0.034 0.152,0.099c1.013,3.25 5.316,17.053 5.811,18.64c0.029,0.093 0.01,0.194 -0.052,0.27c-0.485,0.6 -2.634,3.253 -3.278,4.049Z" style="fill:#e8eaf0;"/><path id="秒24" serif:id="秒" d="M412.79,371.897c0.012,0.076 -0.006,0.154 -0.052,0.217c-0.045,0.062 -0.114,0.104 -0.19,0.116c-1.012,0.16 -4.389,0.694 -5.147,0.814c-0.095,0.015 -0.192,-0.018 -0.257,-0.089c-1.121,-1.216 -10.928,-11.852 -13.236,-14.355c-0.047,-0.05 -0.051,-0.126 -0.011,-0.181c0.04,-0.056 0.114,-0.075 0.176,-0.046c3.092,1.422 16.227,7.464 17.737,8.159c0.089,0.041 0.151,0.123 0.166,0.219c0.121,0.763 0.654,4.135 0.814,5.146Z" style="fill:#e8eaf0;"/><path id="秒25" serif:id="秒" d="M400.614,386.951c0.004,0.077 -0.023,0.153 -0.075,0.21c-0.052,0.058 -0.124,0.092 -0.201,0.096c-1.024,0.053 -4.438,0.229 -5.205,0.268c-0.096,0.005 -0.188,-0.038 -0.246,-0.115c-0.987,-1.327 -9.62,-12.936 -11.652,-15.669c-0.041,-0.054 -0.038,-0.13 0.008,-0.181c0.046,-0.051 0.121,-0.062 0.18,-0.027c2.926,1.74 15.352,9.13 16.781,9.98c0.083,0.05 0.137,0.138 0.142,0.236c0.039,0.77 0.215,4.18 0.268,5.202Z" style="fill:#e8eaf0;"/><path id="秒26" serif:id="秒" d="M387.015,400.556c-0.004,0.077 -0.039,0.15 -0.096,0.201c-0.057,0.052 -0.133,0.079 -0.21,0.074c-1.024,-0.054 -4.437,-0.236 -5.204,-0.277c-0.096,-0.005 -0.184,-0.058 -0.233,-0.141c-0.842,-1.422 -8.215,-13.87 -9.951,-16.8c-0.035,-0.059 -0.023,-0.134 0.027,-0.179c0.051,-0.046 0.127,-0.049 0.182,-0.009c2.728,2.037 14.314,10.685 15.646,11.68c0.078,0.058 0.122,0.152 0.116,0.249c-0.041,0.771 -0.222,4.18 -0.277,5.202Z" style="fill:#e8eaf0;"/></g></g><g id="文字盤30-39"><path d="M256.094,447.744c-0.031,0.152 0.045,0.306 0.183,0.375c1.203,0.601 6.651,3.324 7.619,3.807c0.093,0.047 0.202,0.047 0.295,0c0.972,-0.486 6.472,-3.238 7.635,-3.82c0.128,-0.064 0.197,-0.205 0.169,-0.345c-0.587,-2.932 -6.446,-32.189 -7.719,-38.546c-0.023,-0.116 -0.124,-0.199 -0.243,-0.199c-0.118,0 -0.219,0.083 -0.243,0.199c-1.267,6.344 -7.088,35.485 -7.696,38.529Z" style="fill:#22406d;"/><g><path id="秒27" serif:id="秒" d="M189.441,431.992c-0.072,0.028 -0.152,0.025 -0.223,-0.006c-0.07,-0.031 -0.126,-0.09 -0.153,-0.162c-0.368,-0.956 -1.593,-4.148 -1.868,-4.865c-0.035,-0.09 -0.022,-0.191 0.034,-0.27c0.955,-1.349 9.317,-13.155 11.285,-15.934c0.039,-0.056 0.113,-0.076 0.175,-0.048c0.062,0.027 0.096,0.095 0.082,0.162c-0.748,3.321 -3.923,17.426 -4.289,19.048c-0.021,0.095 -0.088,0.173 -0.179,0.208c-0.721,0.276 -3.908,1.5 -4.864,1.867Z" style="fill:#e8eaf0;"/><path id="秒28" serif:id="秒" d="M172.307,423.288c-0.075,0.02 -0.154,0.009 -0.221,-0.029c-0.067,-0.039 -0.116,-0.102 -0.136,-0.177c-0.265,-0.99 -1.151,-4.292 -1.35,-5.034c-0.025,-0.093 -0.001,-0.192 0.062,-0.264c1.092,-1.243 10.64,-12.111 12.888,-14.669c0.045,-0.052 0.12,-0.064 0.179,-0.03c0.059,0.034 0.086,0.105 0.064,0.17c-1.091,3.225 -5.721,16.921 -6.254,18.496c-0.031,0.092 -0.106,0.163 -0.2,0.188c-0.746,0.2 -4.043,1.084 -5.032,1.349Z" style="fill:#e8eaf0;"/><path id="秒29" serif:id="秒" d="M156.204,412.863c-0.076,0.013 -0.154,-0.006 -0.217,-0.052c-0.062,-0.045 -0.104,-0.113 -0.116,-0.19c-0.161,-1.012 -0.697,-4.388 -0.818,-5.146c-0.015,-0.096 0.018,-0.192 0.089,-0.257c1.215,-1.122 11.844,-10.936 14.346,-13.246c0.05,-0.047 0.126,-0.051 0.182,-0.011c0.055,0.04 0.074,0.114 0.046,0.176c-1.421,3.093 -7.454,16.232 -8.148,17.743c-0.04,0.088 -0.123,0.151 -0.219,0.166c-0.762,0.121 -4.134,0.657 -5.145,0.817Z" style="fill:#e8eaf0;"/><path id="秒30" serif:id="秒" d="M141.237,400.783c-0.077,0.004 -0.153,-0.023 -0.21,-0.075c-0.058,-0.051 -0.092,-0.124 -0.096,-0.201c-0.055,-1.023 -0.235,-4.437 -0.276,-5.204c-0.005,-0.096 0.039,-0.188 0.116,-0.246c1.325,-0.989 12.922,-9.638 15.652,-11.674c0.054,-0.041 0.13,-0.038 0.181,0.008c0.051,0.046 0.062,0.121 0.028,0.179c-1.737,2.929 -9.11,15.365 -9.958,16.795c-0.049,0.084 -0.138,0.137 -0.235,0.143c-0.77,0.04 -4.18,0.221 -5.202,0.275Z" style="fill:#e8eaf0;"/><path id="秒31" serif:id="秒" d="M127.53,387.11c-0.077,-0.004 -0.15,-0.038 -0.201,-0.096c-0.052,-0.057 -0.079,-0.133 -0.075,-0.21c0.054,-1.023 0.234,-4.437 0.274,-5.204c0.005,-0.096 0.058,-0.184 0.141,-0.233c1.422,-0.843 13.864,-8.225 16.793,-9.963c0.058,-0.034 0.133,-0.023 0.179,0.028c0.046,0.05 0.049,0.126 0.009,0.181c-2.035,2.729 -10.675,14.321 -11.669,15.654c-0.058,0.078 -0.152,0.122 -0.249,0.117c-0.771,-0.041 -4.18,-0.22 -5.202,-0.274Z" style="fill:#e8eaf0;"/><path id="秒32" serif:id="秒" d="M115.486,372.277c-0.076,-0.012 -0.145,-0.054 -0.19,-0.116c-0.046,-0.063 -0.064,-0.141 -0.052,-0.217c0.16,-1.012 0.692,-4.389 0.812,-5.148c0.015,-0.095 0.077,-0.176 0.164,-0.217c1.502,-0.691 14.644,-6.741 17.737,-8.165c0.062,-0.029 0.136,-0.01 0.176,0.046c0.04,0.055 0.035,0.131 -0.011,0.181c-2.307,2.503 -12.104,13.135 -13.23,14.358c-0.066,0.071 -0.164,0.105 -0.26,0.09c-0.762,-0.12 -4.135,-0.652 -5.146,-0.812Z" style="fill:#e8eaf0;"/><path id="秒33" serif:id="秒" d="M245.035,446.813c-0.06,0.049 -0.137,0.072 -0.214,0.063c-0.076,-0.008 -0.147,-0.046 -0.195,-0.106c-0.646,-0.796 -2.797,-3.452 -3.281,-4.049c-0.061,-0.075 -0.08,-0.175 -0.051,-0.267c0.491,-1.579 4.793,-15.392 5.805,-18.643c0.021,-0.065 0.084,-0.107 0.152,-0.1c0.068,0.007 0.121,0.061 0.127,0.129c0.316,3.39 1.658,17.785 1.812,19.44c0.009,0.097 -0.031,0.192 -0.107,0.254c-0.6,0.485 -3.252,2.635 -4.048,3.279Z" style="fill:#e8eaf0;"/><path id="秒34" serif:id="秒" d="M225.908,443.803c-0.065,0.043 -0.144,0.057 -0.219,0.041c-0.076,-0.016 -0.142,-0.062 -0.184,-0.126c-0.558,-0.86 -2.418,-3.728 -2.836,-4.372c-0.053,-0.081 -0.061,-0.183 -0.023,-0.271c0.655,-1.518 6.386,-14.802 7.735,-17.929c0.027,-0.063 0.094,-0.098 0.161,-0.083c0.067,0.014 0.114,0.073 0.113,0.141c-0.042,3.404 -0.223,17.861 -0.244,19.523c-0.001,0.098 -0.051,0.188 -0.133,0.241c-0.647,0.42 -3.511,2.278 -4.37,2.835Z" style="fill:#e8eaf0;"/><path id="秒35" serif:id="秒" d="M207.325,438.838c-0.069,0.035 -0.149,0.041 -0.223,0.017c-0.073,-0.024 -0.134,-0.076 -0.169,-0.145c-0.465,-0.913 -2.016,-3.96 -2.364,-4.644c-0.044,-0.086 -0.042,-0.188 0.006,-0.272c0.81,-1.442 7.897,-14.054 9.566,-17.022c0.033,-0.06 0.104,-0.088 0.169,-0.066c0.065,0.021 0.106,0.085 0.098,0.152c-0.398,3.381 -2.089,17.74 -2.283,19.391c-0.012,0.097 -0.071,0.181 -0.158,0.225c-0.687,0.351 -3.73,1.899 -4.642,2.364Z" style="fill:#e8eaf0;"/></g></g><g id="文字盤40-49"><path d="M100.9,348.988c-0.147,0.049 -0.242,0.191 -0.233,0.346c0.081,1.342 0.446,7.421 0.51,8.502c0.007,0.103 0.061,0.198 0.148,0.255c0.908,0.599 6.039,3.987 7.125,4.704c0.119,0.079 0.276,0.068 0.383,-0.026c2.246,-1.975 24.658,-21.671 29.529,-25.951c0.088,-0.078 0.11,-0.208 0.051,-0.31c-0.059,-0.102 -0.183,-0.149 -0.294,-0.111c-6.128,2.073 -34.278,11.596 -37.219,12.591Z" style="fill:#22406d;"/><g><path id="秒36" serif:id="秒" d="M81.231,283.384c-0.06,-0.049 -0.098,-0.119 -0.106,-0.196c-0.009,-0.077 0.014,-0.154 0.063,-0.214c0.645,-0.796 2.797,-3.452 3.28,-4.049c0.061,-0.075 0.155,-0.115 0.251,-0.106c1.646,0.154 16.051,1.495 19.442,1.811c0.068,0.006 0.122,0.06 0.129,0.127c0.007,0.068 -0.035,0.132 -0.1,0.152c-3.25,1.012 -17.054,5.312 -18.641,5.806c-0.093,0.029 -0.194,0.009 -0.27,-0.052c-0.6,-0.486 -3.252,-2.635 -4.048,-3.279Z" style="fill:#e8eaf0;"/><path id="秒37" serif:id="秒" d="M80.206,264.193c-0.055,-0.055 -0.085,-0.129 -0.085,-0.206c0,-0.077 0.03,-0.151 0.085,-0.206c0.725,-0.725 3.142,-3.142 3.685,-3.685c0.068,-0.068 0.166,-0.097 0.26,-0.078c1.622,0.324 15.808,3.162 19.147,3.83c0.067,0.014 0.115,0.072 0.115,0.141c0,0.068 -0.048,0.127 -0.115,0.14c-3.338,0.667 -17.515,3.502 -19.145,3.828c-0.096,0.019 -0.195,-0.011 -0.264,-0.08c-0.545,-0.546 -2.959,-2.96 -3.683,-3.684Z" style="fill:#e8eaf0;"/><path id="秒38" serif:id="秒" d="M81.187,245.036c-0.049,-0.061 -0.072,-0.137 -0.063,-0.214c0.008,-0.077 0.046,-0.148 0.106,-0.196c0.796,-0.645 3.452,-2.797 4.049,-3.281c0.075,-0.06 0.175,-0.08 0.267,-0.051c1.579,0.492 15.392,4.793 18.643,5.806c0.065,0.02 0.107,0.083 0.1,0.151c-0.007,0.068 -0.061,0.121 -0.129,0.128c-3.39,0.316 -17.785,1.657 -19.44,1.811c-0.097,0.009 -0.192,-0.031 -0.254,-0.107c-0.485,-0.599 -2.635,-3.252 -3.279,-4.047Z" style="fill:#e8eaf0;"/><path id="秒39" serif:id="秒" d="M84.17,226.034c-0.042,-0.065 -0.057,-0.144 -0.041,-0.219c0.016,-0.076 0.062,-0.142 0.126,-0.184c0.86,-0.558 3.726,-2.421 4.37,-2.839c0.081,-0.053 0.183,-0.062 0.271,-0.024c1.519,0.654 14.807,6.376 17.935,7.723c0.062,0.027 0.097,0.094 0.083,0.161c-0.014,0.067 -0.073,0.114 -0.142,0.113c-3.404,-0.04 -17.861,-0.21 -19.523,-0.23c-0.097,-0.001 -0.188,-0.051 -0.241,-0.133c-0.42,-0.647 -2.28,-3.509 -2.838,-4.368Z" style="fill:#e8eaf0;"/><path id="秒40" serif:id="秒" d="M89.161,207.328c-0.035,-0.069 -0.041,-0.149 -0.017,-0.222c0.024,-0.074 0.076,-0.135 0.145,-0.17c0.913,-0.464 3.96,-2.015 4.644,-2.364c0.086,-0.043 0.188,-0.041 0.272,0.006c1.441,0.81 14.054,7.897 17.022,9.566c0.06,0.033 0.088,0.104 0.066,0.169c-0.021,0.065 -0.085,0.106 -0.152,0.098c-3.381,-0.398 -17.74,-2.088 -19.391,-2.283c-0.097,-0.011 -0.181,-0.07 -0.226,-0.157c-0.35,-0.688 -1.898,-3.73 -2.363,-4.643Z" style="fill:#e8eaf0;"/><path id="秒41" serif:id="秒" d="M95.99,189.483c-0.028,-0.072 -0.026,-0.152 0.005,-0.223c0.032,-0.071 0.09,-0.126 0.162,-0.153c0.957,-0.368 4.148,-1.594 4.865,-1.87c0.09,-0.034 0.191,-0.021 0.269,0.034c1.35,0.956 13.158,9.314 15.938,11.282c0.056,0.039 0.076,0.112 0.048,0.175c-0.028,0.062 -0.096,0.096 -0.162,0.081c-3.321,-0.747 -17.427,-3.919 -19.049,-4.283c-0.095,-0.022 -0.173,-0.089 -0.208,-0.18c-0.277,-0.72 -1.501,-3.907 -1.868,-4.863Z" style="fill:#e8eaf0;"/><path id="秒42" serif:id="秒" d="M96.18,338.944c-0.073,-0.028 -0.131,-0.083 -0.162,-0.154c-0.032,-0.07 -0.034,-0.15 -0.006,-0.222c0.367,-0.957 1.592,-4.149 1.868,-4.866c0.034,-0.09 0.111,-0.156 0.205,-0.177c1.613,-0.364 15.727,-3.542 19.049,-4.29c0.067,-0.015 0.135,0.019 0.163,0.082c0.027,0.062 0.007,0.135 -0.048,0.175c-2.778,1.967 -14.576,10.324 -15.933,11.285c-0.079,0.056 -0.182,0.069 -0.273,0.034c-0.72,-0.277 -3.907,-1.5 -4.863,-1.867Z" style="fill:#e8eaf0;"/><path id="秒43" serif:id="秒" d="M89.227,320.873c-0.069,-0.035 -0.121,-0.096 -0.145,-0.17c-0.024,-0.073 -0.018,-0.153 0.018,-0.222c0.465,-0.913 2.019,-3.958 2.369,-4.642c0.043,-0.086 0.127,-0.144 0.223,-0.155c1.642,-0.191 16.012,-1.867 19.395,-2.262c0.067,-0.007 0.131,0.034 0.152,0.098c0.021,0.065 -0.006,0.136 -0.066,0.169c-2.969,1.665 -15.581,8.734 -17.031,9.547c-0.085,0.047 -0.188,0.049 -0.275,0.005c-0.688,-0.351 -3.728,-1.903 -4.64,-2.368Z" style="fill:#e8eaf0;"/><path id="秒44" serif:id="秒" d="M84.24,302.295c-0.065,-0.042 -0.11,-0.108 -0.126,-0.184c-0.017,-0.075 -0.002,-0.154 0.04,-0.219c0.559,-0.859 2.423,-3.725 2.842,-4.369c0.052,-0.08 0.141,-0.13 0.238,-0.131c1.653,-0.019 16.119,-0.183 19.525,-0.222c0.068,-0.001 0.127,0.047 0.141,0.114c0.014,0.066 -0.02,0.134 -0.083,0.161c-3.127,1.345 -16.409,7.057 -17.936,7.714c-0.09,0.038 -0.192,0.029 -0.274,-0.024c-0.647,-0.42 -3.509,-2.282 -4.367,-2.84Z" style="fill:#e8eaf0;"/></g></g><g id="文字盤50-59"><path d="M108.849,165.245c-0.117,-0.102 -0.287,-0.114 -0.417,-0.029c-1.121,0.741 -6.204,4.097 -7.107,4.693c-0.087,0.057 -0.141,0.152 -0.148,0.255c-0.065,1.086 -0.433,7.224 -0.511,8.523c-0.009,0.142 0.079,0.273 0.214,0.319c2.833,0.958 31.097,10.519 37.239,12.597c0.111,0.038 0.235,-0.009 0.294,-0.111c0.059,-0.102 0.037,-0.232 -0.051,-0.31c-4.86,-4.27 -27.181,-23.887 -29.513,-25.937Z" style="fill:#22406d;"/><g><path id="秒45" serif:id="秒" d="M155.828,115.409c0.013,-0.076 0.054,-0.144 0.117,-0.19c0.063,-0.045 0.14,-0.064 0.217,-0.052c1.012,0.161 4.388,0.696 5.147,0.816c0.095,0.015 0.176,0.077 0.217,0.165c0.69,1.502 6.731,14.648 8.153,17.742c0.028,0.062 0.009,0.136 -0.046,0.176c-0.056,0.04 -0.131,0.035 -0.182,-0.011c-2.501,-2.309 -13.127,-12.113 -14.348,-13.241c-0.072,-0.066 -0.106,-0.163 -0.09,-0.259c0.12,-0.763 0.655,-4.134 0.815,-5.146Z" style="fill:#e8eaf0;"/><path id="秒46" serif:id="秒" d="M171.936,104.926c0.02,-0.074 0.069,-0.138 0.136,-0.177c0.066,-0.038 0.146,-0.049 0.221,-0.029c0.989,0.266 4.291,1.151 5.033,1.349c0.093,0.025 0.168,0.095 0.199,0.186c0.529,1.567 5.164,15.271 6.255,18.497c0.022,0.065 -0.004,0.136 -0.064,0.17c-0.059,0.034 -0.134,0.022 -0.179,-0.029c-2.247,-2.558 -11.79,-13.418 -12.887,-14.667c-0.065,-0.073 -0.088,-0.174 -0.063,-0.268c0.2,-0.745 1.084,-4.043 1.349,-5.032Z" style="fill:#e8eaf0;"/><path id="秒47" serif:id="秒" d="M189.017,96.197c0.028,-0.072 0.083,-0.13 0.154,-0.162c0.07,-0.031 0.15,-0.033 0.222,-0.006c0.957,0.367 4.149,1.592 4.866,1.867c0.09,0.034 0.157,0.111 0.178,0.205c0.364,1.613 3.545,15.726 4.294,19.049c0.015,0.066 -0.019,0.134 -0.082,0.162c-0.062,0.028 -0.135,0.008 -0.175,-0.048c-1.968,-2.778 -10.327,-14.574 -11.288,-15.93c-0.057,-0.08 -0.07,-0.182 -0.035,-0.273c0.277,-0.721 1.499,-3.908 1.866,-4.864Z" style="fill:#e8eaf0;"/><path id="秒48" serif:id="秒" d="M206.965,89.28c0.035,-0.069 0.096,-0.121 0.169,-0.145c0.073,-0.024 0.153,-0.018 0.222,0.017c0.913,0.465 3.96,2.016 4.644,2.365c0.086,0.044 0.144,0.127 0.156,0.223c0.193,1.642 1.882,16.01 2.279,19.393c0.008,0.067 -0.033,0.131 -0.098,0.152c-0.064,0.022 -0.135,-0.006 -0.169,-0.066c-1.667,-2.968 -8.748,-15.573 -9.562,-17.022c-0.048,-0.085 -0.05,-0.188 -0.005,-0.275c0.35,-0.688 1.899,-3.73 2.364,-4.642Z" style="fill:#e8eaf0;"/><path id="秒49" serif:id="秒" d="M225.66,84.249c0.042,-0.064 0.108,-0.11 0.184,-0.126c0.075,-0.016 0.154,-0.001 0.219,0.041c0.859,0.558 3.725,2.421 4.369,2.84c0.081,0.052 0.13,0.142 0.131,0.238c0.02,1.654 0.188,16.12 0.227,19.525c0.001,0.068 -0.046,0.128 -0.113,0.142c-0.067,0.014 -0.134,-0.021 -0.161,-0.084c-1.346,-3.127 -7.062,-16.407 -7.719,-17.934c-0.038,-0.089 -0.029,-0.192 0.024,-0.274c0.42,-0.647 2.281,-3.509 2.839,-4.368Z" style="fill:#e8eaf0;"/><path id="秒50" serif:id="秒" d="M244.528,81.24c0.049,-0.06 0.12,-0.098 0.196,-0.106c0.077,-0.008 0.154,0.014 0.214,0.063c0.797,0.645 3.454,2.795 4.051,3.278c0.075,0.061 0.115,0.155 0.106,0.251c-0.153,1.646 -1.487,16.052 -1.801,19.443c-0.007,0.068 -0.06,0.122 -0.128,0.129c-0.068,0.007 -0.131,-0.035 -0.152,-0.1c-1.013,-3.25 -5.319,-17.051 -5.814,-18.638c-0.029,-0.093 -0.01,-0.194 0.051,-0.27c0.486,-0.6 2.633,-3.254 3.277,-4.05Z" style="fill:#e8eaf0;"/><path id="秒51" serif:id="秒" d="M115.186,156.135c-0.012,-0.076 0.007,-0.154 0.052,-0.217c0.046,-0.062 0.114,-0.104 0.191,-0.116c1.012,-0.16 4.388,-0.695 5.147,-0.815c0.095,-0.015 0.191,0.018 0.257,0.089c1.121,1.215 10.93,11.849 13.239,14.352c0.046,0.05 0.051,0.126 0.011,0.181c-0.041,0.056 -0.114,0.075 -0.176,0.046c-3.093,-1.422 -16.229,-7.461 -17.74,-8.155c-0.088,-0.041 -0.15,-0.123 -0.166,-0.219c-0.12,-0.763 -0.654,-4.134 -0.815,-5.146Z" style="fill:#e8eaf0;"/><path id="秒52" serif:id="秒" d="M127.36,141.078c-0.004,-0.077 0.023,-0.153 0.074,-0.21c0.052,-0.057 0.125,-0.092 0.202,-0.096c1.023,-0.053 4.437,-0.229 5.204,-0.269c0.096,-0.005 0.189,0.038 0.246,0.116c0.987,1.326 9.623,12.933 11.656,15.665c0.041,0.055 0.037,0.131 -0.008,0.182c-0.046,0.05 -0.121,0.062 -0.18,0.027c-2.926,-1.74 -15.354,-9.127 -16.783,-9.977c-0.084,-0.05 -0.137,-0.138 -0.142,-0.235c-0.04,-0.771 -0.216,-4.18 -0.269,-5.203Z" style="fill:#e8eaf0;"/><path id="秒53" serif:id="秒" d="M140.955,127.47c0.004,-0.077 0.039,-0.149 0.096,-0.201c0.058,-0.051 0.134,-0.078 0.211,-0.074c1.023,0.054 4.437,0.236 5.204,0.276c0.096,0.005 0.183,0.058 0.232,0.141c0.843,1.423 8.219,13.868 9.955,16.798c0.035,0.059 0.024,0.134 -0.027,0.179c-0.051,0.046 -0.127,0.05 -0.182,0.009c-2.728,-2.036 -14.316,-10.682 -15.648,-11.676c-0.078,-0.058 -0.122,-0.152 -0.117,-0.249c0.041,-0.771 0.222,-4.18 0.276,-5.203Z" style="fill:#e8eaf0;"/></g></g></g><path id="つまみ可動域" d="M264,8c141.29,0 256,114.71 256,256c0,141.29 -114.71,256 -256,256c-141.29,0 -256,-114.71 -256,-256c0,-141.29 114.71,-256 256,-256Zm0,64c105.968,0 192,86.032 192,192c0,105.968 -86.032,192 -192,192c-105.968,0 -192,-86.032 -192,-192c0,-105.968 86.032,-192 192,-192Z" style="fill:#f7f7f8;"/></svg>